<mxfile host="app.diagrams.net" modified="2023-10-26T17:24:52.936Z" agent="Mozilla/5.0 (Windows NT 10.0; Win64; x64; rv:109.0) Gecko/20100101 Firefox/118.0" version="22.0.8" etag="Yt96NZl2cuAE-9rHd8Kp" type="github">
  <diagram name="Page-1" id="hZps5yUOZtA-7cshBxVZ">
    <mxGraphModel>
      <root>
        <mxCell id="0" />
        <mxCell id="1" parent="0" />
      </root>
    </mxGraphModel>
  </diagram>
</mxfile>
